<?xml version="1.0" encoding="utf-8"?>
<!-- Generator: Adobe Illustrator 16.0.4, SVG Export Plug-In . SVG Version: 6.00 Build 0)  -->
<!DOCTYPE svg PUBLIC "-//W3C//DTD SVG 1.1//EN" "http://www.w3.org/Graphics/SVG/1.1/DTD/svg11.dtd">
<svg version="1.1" id="Calque_1" xmlns="http://www.w3.org/2000/svg" xmlns:xlink="http://www.w3.org/1999/xlink" x="0px" y="0px"
	 width="595.28px" height="188.775px" viewBox="0 0 595.28 188.775" enable-background="new 0 0 595.28 188.775"
	 xml:space="preserve">
<g id="ir7elx_1_">
	<g>
		<path fill="#FFFFFF" d="M375.002,165.227c6.14-36.994,12.28-73.987,18.42-110.981c36.994,6.14,73.988,12.28,110.982,18.42
			c-6.141,36.994-12.28,73.988-18.421,110.982C448.989,177.507,411.996,171.367,375.002,165.227z M438.592,148.164
			c-0.369,4.21-0.41,8.639-1.23,12.918c-0.821,4.284-3.715,7.186-8.046,8.354c-2.226,0.601-4.331,0.438-5.958-1.441
			c1.604-0.742,3.207-1.271,4.572-2.166c2.234-1.462,2.912-4.044,2.021-6.623c-0.882-2.551-3.01-3.94-5.771-3.77
			c-3.11,0.192-5.382,2.228-6.196,5.554c-0.778,3.176,0.591,6.25,3.586,8.056c5.727,3.45,13.893,0.99,15.947-5.353
			c1.277-3.944,1.444-8.293,1.754-12.486c0.178-2.404,0.478-3.771,3.351-4.317c7.189-1.365,12.392-8.241,12.134-15.314
			c-0.352-9.671-4.681-14.351-14.729-15.704c0.04-2.61-0.028-5.263,0.181-7.893c0.071-0.905,0.633-1.983,1.317-2.592
			c2.609-2.318,5.527-4.305,8.028-6.727c7.423-7.192,8.942-16.021,6.529-25.729c-0.835-3.361-1.885-3.816-4.94-2.035
			c-5.681,3.312-9.814,7.994-11.182,14.593c-0.655,3.159-1.202,6.449-1.035,9.641c0.167,3.172-1.037,4.972-3.634,6.28
			c-0.664,0.335-1.261,0.811-1.869,1.248c-4.81,3.458-9.502,7.022-12.816,12.089c-7.544,11.532-3.153,26.765,9.254,31.473
			C432.461,147.205,435.342,147.463,438.592,148.164z"/>
		<path fill-rule="evenodd" clip-rule="evenodd" d="M438.592,148.164c-3.25-0.701-6.131-0.959-8.733-1.946
			c-12.407-4.708-16.798-19.94-9.254-31.473c3.314-5.066,8.007-8.631,12.816-12.089c0.608-0.438,1.205-0.913,1.869-1.248
			c2.597-1.309,3.801-3.108,3.634-6.28c-0.167-3.191,0.38-6.481,1.035-9.641c1.367-6.599,5.501-11.281,11.182-14.593
			c3.056-1.781,4.105-1.326,4.94,2.035c2.413,9.708,0.894,18.537-6.529,25.729c-2.501,2.422-5.419,4.408-8.028,6.727
			c-0.685,0.608-1.246,1.687-1.317,2.592c-0.209,2.63-0.141,5.282-0.181,7.893c10.049,1.354,14.378,6.033,14.729,15.704
			c0.258,7.073-4.944,13.949-12.134,15.314c-2.873,0.546-3.173,1.913-3.351,4.317c-0.31,4.193-0.477,8.542-1.754,12.486
			c-2.055,6.343-10.221,8.803-15.947,5.353c-2.995-1.806-4.364-4.88-3.586-8.056c0.814-3.326,3.086-5.361,6.196-5.554
			c2.762-0.171,4.89,1.219,5.771,3.77c0.891,2.579,0.213,5.161-2.021,6.623c-1.365,0.895-2.969,1.424-4.572,2.166
			c1.627,1.879,3.732,2.042,5.958,1.441c4.331-1.168,7.225-4.069,8.046-8.354C438.182,156.803,438.223,152.374,438.592,148.164z
			 M438.672,122.857c-3.249,0.57-5.632,2.118-7.175,4.713c-2.469,4.155-0.909,7.822,2.207,11.356
			c-3.869-0.893-6.756-4.989-7.002-9.395c-0.329-5.913,3.956-10.814,12.091-13.725c0.002-2.649,0.005-5.343,0.008-8.904
			c-4.245,3.543-8.089,6.434-11.559,9.72c-5.469,5.18-6.612,11.712-4.812,18.795c1.742,6.854,9.087,11.558,15.985,10.299
			C438.5,138.227,438.585,130.697,438.672,122.857z M439.593,145.85c6.305-0.986,10.443-6.68,10.008-13.246
			c-0.394-5.937-3.727-9.343-9.665-9.536C439.822,130.596,439.709,138.119,439.593,145.85z M440.531,98.062
			c5.66-4.004,11.249-7.691,14-14.143c1.322-3.103,1.895-6.316-0.065-9.483C446.232,78.693,439.397,90.128,440.531,98.062z"/>
		<path fill-rule="evenodd" clip-rule="evenodd" fill="#FFFFFF" d="M438.672,122.857c-0.087,7.84-0.172,15.369-0.256,22.859
			c-6.898,1.259-14.243-3.444-15.985-10.299c-1.801-7.083-0.657-13.615,4.812-18.795c3.47-3.286,7.313-6.177,11.559-9.72
			c-0.003,3.562-0.006,6.255-0.008,8.904c-8.135,2.91-12.42,7.812-12.091,13.725c0.246,4.405,3.133,8.502,7.002,9.395
			c-3.116-3.534-4.676-7.201-2.207-11.356C433.04,124.976,435.423,123.428,438.672,122.857z"/>
		<path fill-rule="evenodd" clip-rule="evenodd" fill="#FFFFFF" d="M439.593,145.85c0.116-7.73,0.229-15.254,0.343-22.782
			c5.938,0.193,9.271,3.6,9.665,9.536C450.036,139.17,445.897,144.863,439.593,145.85z"/>
		<path fill-rule="evenodd" clip-rule="evenodd" fill="#FFFFFF" d="M440.531,98.062c-1.134-7.935,5.701-19.369,13.935-23.626
			c1.96,3.167,1.388,6.381,0.065,9.483C451.78,90.371,446.191,94.059,440.531,98.062z"/>
	</g>
</g>
<g>
	<g>
		<path d="M190.373,71.27v-0.695h2.9c1.121-2.204,2.349-4.234,3.683-6.091c1.334-1.855,2.832-3.509,4.495-4.959
			c1.662-1.449,3.509-2.677,5.539-3.683c2.03-1.005,4.301-1.759,6.815-2.262v-0.116c-2.552,0-5.075-0.038-7.569-0.116
			c-2.494-0.077-5.017-0.116-7.569-0.116c-1.818,0-3.809,0.068-5.974,0.203c-2.166,0.136-4.35,0.377-6.554,0.726
			c-2.204,0.348-4.321,0.812-6.351,1.392c-2.03,0.58-3.838,1.315-5.423,2.204c-1.586,0.89-2.852,1.943-3.799,3.161
			c-0.948,1.218-1.421,2.658-1.421,4.32c0,1.122,0.309,2.089,0.928,2.9c0.618,0.812,1.392,1.479,2.32,2.001
			c0.928,0.522,1.943,0.899,3.045,1.131c1.102,0.232,2.136,0.349,3.103,0.349c2.01,0,3.866-0.251,5.568-0.755
			c1.701-0.502,3.161-1.246,4.379-2.232c1.218-0.986,2.165-2.185,2.842-3.596c0.676-1.411,1.015-3.046,1.015-4.901
			c0-0.425,0-0.754,0-0.986c0-0.231-0.02-0.443-0.058-0.638h0.696c0,0.31,0.009,0.6,0.029,0.87c0.019,0.271,0.029,0.542,0.029,0.812
			c0,1.973-0.397,3.819-1.189,5.539c-0.793,1.722-1.866,3.21-3.219,4.466c-1.354,1.258-2.91,2.253-4.669,2.987
			c-1.76,0.735-3.625,1.103-5.597,1.103c-1.199,0-2.388-0.184-3.567-0.552c-1.18-0.366-2.243-0.898-3.19-1.595
			c-0.948-0.696-1.711-1.565-2.291-2.61c-0.58-1.044-0.87-2.223-0.87-3.537c0-2.204,0.531-4.031,1.595-5.481
			c1.063-1.45,2.387-2.716,3.973-3.799c2.358-1.624,4.862-2.929,7.511-3.915c2.648-0.986,5.365-1.74,8.149-2.262
			c2.784-0.522,5.597-0.87,8.439-1.044c2.842-0.175,5.597-0.262,8.265-0.262c1.585,0,3.228,0.039,4.93,0.116
			c1.701,0.078,3.335,0.165,4.901,0.261c1.566,0.098,2.996,0.185,4.292,0.262c1.295,0.077,2.349,0.136,3.161,0.174
			c1.044,0.039,1.788,0.213,2.233,0.521c0.444,0.311,0.667,0.852,0.667,1.624c0,0.658-0.377,1.18-1.131,1.566
			c-0.754,0.387-1.963,0.58-3.625,0.58c-1.199,0-2.388-0.048-3.567-0.146c-1.18-0.096-2.388-0.145-3.625-0.145
			c-1.199,0-2.34,0.28-3.422,0.841c-1.083,0.561-2.127,1.305-3.132,2.233c-1.006,0.928-1.943,1.981-2.813,3.16
			c-0.87,1.181-1.682,2.378-2.436,3.597c-0.754,1.218-1.441,2.417-2.059,3.596c-0.619,1.18-1.16,2.214-1.624,3.104
			c0.734-0.077,1.517-0.126,2.349-0.146c0.831-0.019,1.624-0.125,2.378-0.319c0.754-0.192,1.44-0.502,2.059-0.928
			c0.618-0.425,1.082-1.044,1.392-1.855c1.044-0.077,2.097-0.136,3.161-0.175c1.063-0.038,2.117-0.058,3.161-0.058
			c-1.276,0.967-2.562,1.963-3.857,2.987c-1.296,1.024-2.523,2.116-3.683,3.276c-1.16,1.16-2.214,2.398-3.161,3.712
			c-0.948,1.315-1.73,2.727-2.349,4.234h-0.464c0.618-1.894,1.353-3.721,2.204-5.481c0.85-1.759,1.798-3.45,2.842-5.074
			c-0.387,0.077-0.861,0.145-1.421,0.203c-0.561,0.058-1.141,0.106-1.74,0.145c-0.6,0.039-1.18,0.078-1.74,0.116
			c-0.561,0.039-1.035,0.058-1.421,0.058c-1.547,2.514-3.142,4.95-4.785,7.309c-1.644,2.358-3.48,4.437-5.51,6.234
			s-4.321,3.239-6.873,4.321c-2.552,1.082-5.51,1.624-8.874,1.624c-1.16,0-2.427-0.146-3.799-0.436
			c-1.373-0.289-2.649-0.743-3.828-1.362c-1.18-0.618-2.166-1.431-2.958-2.437c-0.792-1.005-1.189-2.223-1.189-3.653
			c0-1.082,0.329-2.039,0.986-2.871c0.657-0.831,1.508-1.247,2.552-1.247c0.85,0,1.566,0.242,2.146,0.725
			c0.58,0.484,0.87,1.17,0.87,2.06c0,0.58-0.174,1.131-0.522,1.652c-0.348,0.522-0.89,0.822-1.624,0.899
			c0.077,1.083,0.319,2.011,0.725,2.784c0.406,0.773,0.947,1.392,1.624,1.855c0.676,0.464,1.459,0.803,2.349,1.016
			c0.889,0.213,1.817,0.318,2.784,0.318c2.59,0,4.872-0.628,6.844-1.885c1.972-1.256,3.741-2.822,5.307-4.698
			c1.566-1.875,2.977-3.915,4.234-6.119c1.256-2.204,2.465-4.233,3.625-6.09H190.373z"/>
		<path d="M222.099,69.762c-1.818,2.862-3.384,5.307-4.698,7.337c-1.315,2.03-2.388,3.761-3.219,5.191
			c-0.832,1.431-1.45,2.601-1.856,3.509c-0.406,0.909-0.609,1.653-0.609,2.232c0,0.465,0.087,0.842,0.261,1.132
			c0.174,0.29,0.435,0.435,0.783,0.435c0.773,0,1.865-0.444,3.277-1.334c1.411-0.889,3.18-2.416,5.307-4.582
			c0.85-0.889,1.682-1.769,2.494-2.639s1.575-1.711,2.291-2.523c0.715-0.812,1.353-1.546,1.914-2.204
			c0.56-0.656,1.015-1.179,1.363-1.565l0.522,0.348c-0.464,0.619-1.035,1.325-1.711,2.117c-0.677,0.793-1.402,1.624-2.175,2.494
			c-0.774,0.87-1.566,1.73-2.378,2.581s-1.605,1.663-2.378,2.436c-2.243,2.243-4.167,3.81-5.771,4.698
			c-1.605,0.889-3.084,1.334-4.437,1.334c-1.276,0-2.262-0.348-2.958-1.044c-0.696-0.696-1.044-1.604-1.044-2.727
			c0-0.772,0.145-1.574,0.435-2.406c0.29-0.831,0.783-1.865,1.479-3.104c0.696-1.237,1.624-2.773,2.784-4.61s2.61-4.108,4.35-6.815
			L222.099,69.762z M225.462,56.886c0.734,0,1.382,0.271,1.943,0.812c0.56,0.542,0.841,1.181,0.841,1.914
			c0,0.774-0.31,1.479-0.928,2.117c-0.619,0.639-1.315,0.957-2.088,0.957c-0.851,0-1.586-0.222-2.204-0.667
			c-0.619-0.444-0.928-1.111-0.928-2.001c0-0.889,0.338-1.633,1.015-2.232C223.79,57.186,224.572,56.886,225.462,56.886z"/>
		<path d="M229.637,80.202c0.541-0.696,1.324-1.683,2.349-2.958c1.024-1.276,2.194-2.532,3.509-3.771
			c1.314-1.237,2.726-2.32,4.234-3.248c1.508-0.928,3.016-1.392,4.524-1.392c1.276,0,2.242,0.357,2.9,1.072
			c0.657,0.717,0.986,1.596,0.986,2.64c0,1.314-0.416,2.659-1.247,4.031c-0.832,1.372-1.75,2.745-2.755,4.117
			c-1.006,1.373-1.924,2.688-2.755,3.944c-0.832,1.257-1.247,2.427-1.247,3.509c0,0.464,0.116,0.841,0.348,1.131
			s0.618,0.436,1.16,0.436c0.541,0,1.44-0.415,2.697-1.247c1.256-0.831,2.948-2.368,5.075-4.611c1.662-1.777,3.19-3.509,4.582-5.19
			c1.392-1.683,2.436-2.948,3.132-3.799l0.58,0.289c-1.006,1.199-2.243,2.688-3.712,4.467c-1.47,1.778-3.036,3.538-4.698,5.277
			c-2.011,2.127-3.722,3.636-5.133,4.524c-1.412,0.889-2.871,1.334-4.379,1.334c-1.47,0-2.552-0.406-3.248-1.218
			c-0.696-0.812-1.044-1.74-1.044-2.784c0-1.314,0.415-2.668,1.247-4.061c0.831-1.392,1.749-2.755,2.755-4.089
			c1.005-1.334,1.923-2.6,2.755-3.799c0.831-1.198,1.247-2.242,1.247-3.132c0-0.425-0.136-0.773-0.406-1.044
			c-0.271-0.271-0.677-0.406-1.218-0.406c-0.774,0-1.682,0.358-2.726,1.073c-1.044,0.716-2.146,1.644-3.306,2.784
			c-1.16,1.141-2.34,2.436-3.538,3.886c-1.199,1.45-2.33,2.9-3.393,4.35c-1.064,1.45-2.021,2.853-2.871,4.205
			c-0.851,1.354-1.528,2.515-2.03,3.48l-5.858,0.174c2.05-3.402,4.109-6.776,6.177-10.121c2.068-3.344,4.108-6.776,6.119-10.295
			l6.612-0.232l-7.54,10.557L229.637,80.202z"/>
		<path d="M286.187,50.158l6.496-0.349c-1.276,2.088-2.736,4.399-4.379,6.932c-1.644,2.532-3.326,5.113-5.046,7.742
			c-1.721,2.63-3.413,5.23-5.075,7.802c-1.663,2.571-3.142,4.949-4.437,7.134c-1.296,2.185-2.34,4.089-3.132,5.713
			c-0.793,1.624-1.189,2.804-1.189,3.538c0,0.426,0.096,0.764,0.29,1.015c0.193,0.252,0.502,0.377,0.928,0.377
			c0.812,0,1.923-0.406,3.335-1.218c1.411-0.812,2.987-2.126,4.727-3.944c1.43-1.469,2.803-2.986,4.118-4.553
			c1.314-1.566,2.745-3.373,4.292-5.423l0.58,0.29c-0.426,0.58-0.938,1.257-1.537,2.03c-0.6,0.773-1.247,1.586-1.943,2.436
			c-0.696,0.851-1.421,1.711-2.175,2.581c-0.754,0.87-1.499,1.692-2.233,2.465c-1.856,1.935-3.635,3.48-5.336,4.641
			c-1.702,1.159-3.519,1.739-5.452,1.739c-0.89,0-1.615-0.145-2.175-0.435c-0.561-0.29-1.006-0.667-1.334-1.131
			c-0.329-0.464-0.532-0.967-0.609-1.509c-0.078-0.541-0.058-1.062,0.058-1.565l-0.116-0.116c-1.199,1.238-2.514,2.282-3.944,3.132
			c-1.431,0.851-3.074,1.276-4.93,1.276c-0.928,0-1.711-0.165-2.349-0.493c-0.638-0.328-1.16-0.772-1.566-1.334
			c-0.406-0.56-0.696-1.198-0.87-1.914c-0.174-0.715-0.261-1.459-0.261-2.232c0-1.934,0.502-3.857,1.508-5.771
			c1.005-1.914,2.3-3.625,3.886-5.133c1.585-1.508,3.344-2.727,5.278-3.654c1.933-0.928,3.847-1.392,5.742-1.392
			c2.59,0,4.33,1.237,5.22,3.712L286.187,50.158z M259.333,88.786c1.237,0,2.523-0.59,3.857-1.77
			c1.334-1.179,2.552-2.61,3.654-4.292s2.001-3.431,2.697-5.249c0.696-1.816,1.044-3.383,1.044-4.698c0-1.121-0.29-1.942-0.87-2.465
			c-0.58-0.521-1.315-0.783-2.204-0.783c-1.199,0-2.446,0.552-3.741,1.653c-1.296,1.103-2.485,2.446-3.567,4.031
			c-1.083,1.586-1.972,3.287-2.668,5.104c-0.696,1.818-1.044,3.442-1.044,4.872c0,0.929,0.212,1.76,0.638,2.494
			C257.554,88.419,258.289,88.786,259.333,88.786z"/>
		<path d="M338.098,49.578l-15.08,23.432c-1.316,2.088-2.438,3.896-3.365,5.423c-0.928,1.528-1.662,2.853-2.203,3.973
			c-0.543,1.122-0.938,2.099-1.189,2.93c-0.252,0.832-0.377,1.595-0.377,2.291c0,0.657,0.125,1.17,0.377,1.537
			s0.668,0.551,1.248,0.551c1.158,0,2.492-0.474,4.002-1.421c1.508-0.947,3.072-2.155,4.697-3.625
			c1.623-1.47,3.248-3.083,4.871-4.843c1.625-1.76,3.133-3.451,4.525-5.075l0.521,0.405c-0.348,0.427-0.822,0.986-1.422,1.683
			s-1.256,1.44-1.971,2.232c-0.717,0.793-1.461,1.596-2.234,2.407c-0.773,0.812-1.508,1.566-2.203,2.262
			c-2.32,2.282-4.408,4.022-6.264,5.221c-1.855,1.199-3.732,1.798-5.627,1.798c-1.934,0-3.277-0.436-4.031-1.305
			c-0.754-0.87-1.131-1.963-1.131-3.277s0.311-2.639,0.93-3.973c0.617-1.334,1.275-2.542,1.971-3.625l-0.115-0.116
			c-1.199,1.431-2.533,2.881-4.002,4.35c-1.471,1.47-3.008,2.794-4.611,3.974c-1.605,1.18-3.258,2.137-4.959,2.87
			c-1.702,0.734-3.403,1.103-5.104,1.103c-1.392,0-2.427-0.387-3.103-1.16c-0.677-0.773-1.015-1.836-1.015-3.189
			c0-1.237,0.444-2.794,1.334-4.67c0.889-1.875,2.01-3.895,3.364-6.061c1.353-2.165,2.803-4.398,4.351-6.699
			c1.545-2.3,2.996-4.533,4.35-6.699c1.354-2.165,2.475-4.166,3.363-6.003c0.891-1.836,1.334-3.354,1.334-4.553
			c0-0.889-0.338-1.585-1.014-2.088c-0.678-0.502-1.596-0.754-2.756-0.754c-1.855,0-3.77,0.435-5.742,1.305
			c-1.972,0.87-3.75,2.011-5.335,3.422c-1.586,1.412-2.891,3.045-3.915,4.901c-1.025,1.856-1.537,3.77-1.537,5.742
			c0,1.044,0.309,2.001,0.928,2.871c0.618,0.87,1.488,1.305,2.61,1.305c1.546,0,2.938-0.473,4.176-1.421
			c1.237-0.947,2.359-2.06,3.365-3.335l0.463,0.348c-1.121,1.47-2.417,2.746-3.885,3.828c-1.47,1.083-3.152,1.624-5.046,1.624
			c-1.624,0-2.91-0.473-3.857-1.421c-0.948-0.947-1.421-2.233-1.421-3.857c0-2.241,0.667-4.35,2.001-6.321
			c1.334-1.973,3.045-3.702,5.133-5.191c2.088-1.488,4.417-2.668,6.989-3.538c2.57-0.87,5.074-1.305,7.51-1.305
			c1.74,0,3.209,0.464,4.408,1.392c1.199,0.929,1.799,2.32,1.799,4.176c0,1.16-0.445,2.631-1.334,4.408
			c-0.891,1.779-2.012,3.723-3.365,5.829c-1.354,2.108-2.803,4.283-4.35,6.525c-1.547,2.243-2.996,4.408-4.35,6.496
			s-2.475,4.021-3.364,5.8c-0.89,1.779-1.334,3.229-1.334,4.35c0,0.774,0.212,1.354,0.638,1.74c0.425,0.387,1.005,0.58,1.74,0.58
			c1.277,0,2.802-0.541,4.582-1.624c1.779-1.082,3.596-2.474,5.453-4.176c1.855-1.701,3.643-3.586,5.365-5.655
			c1.719-2.068,3.18-4.069,4.379-6.003l13.455-21.866L338.098,49.578z"/>
		<path d="M324.582,90.178c1.972-3.402,3.973-6.786,6.003-10.15c2.03-3.363,4.05-6.785,6.061-10.266l6.612-0.232l-7.656,10.788
			l0.116,0.116c1.469-1.816,2.774-3.277,3.915-4.379s2.136-2.001,2.987-2.697c0.85-0.695,1.565-1.227,2.146-1.595
			c0.58-0.367,1.005-0.686,1.276-0.957c0.425-0.425,0.821-0.763,1.188-1.015c0.367-0.251,0.803-0.444,1.306-0.58
			c0.502-0.135,1.11-0.223,1.827-0.261c0.715-0.038,1.613-0.077,2.696-0.116c-0.734,1.044-1.411,2.137-2.029,3.276
			c-0.619,1.142-0.929,2.369-0.929,3.684c0,1.663,0.831,2.494,2.494,2.494c0.541,0,1.073-0.116,1.595-0.349
			c0.522-0.231,1.016-0.521,1.479-0.87c0.464-0.348,0.908-0.725,1.334-1.131c0.425-0.405,0.812-0.783,1.16-1.131l0.231,0.29
			c-1.083,1.354-2.358,2.456-3.827,3.306c-1.471,0.852-3.074,1.276-4.814,1.276c-1.547,0-2.765-0.406-3.654-1.218
			c-0.89-0.812-1.334-2.01-1.334-3.596c0-1.006,0.29-1.952,0.87-2.843l-0.116-0.115c-1.624,1.082-3.171,2.34-4.64,3.77
			c-1.47,1.431-2.833,2.939-4.089,4.524c-1.257,1.586-2.417,3.219-3.48,4.9c-1.063,1.683-2.021,3.316-2.871,4.901L324.582,90.178z"
			/>
		<path d="M348.535,80.027c0-0.733,0.098-1.449,0.29-2.146c0.194-0.696,0.493-1.324,0.899-1.885s0.909-1.005,1.508-1.334
			c0.6-0.328,1.305-0.493,2.117-0.493c0.772,0,1.479,0.223,2.117,0.667c0.638,0.444,0.957,1.093,0.957,1.942
			c0,1.045-0.377,1.848-1.132,2.407c-0.754,0.562-1.614,0.861-2.581,0.899c-0.193,0.542-0.318,1.083-0.377,1.624
			c-0.058,0.542-0.087,1.083-0.087,1.624c0,1.314,0.319,2.427,0.957,3.335c0.639,0.909,1.45,1.634,2.437,2.175
			c0.985,0.542,2.078,0.938,3.276,1.189c1.198,0.251,2.34,0.377,3.423,0.377c1.933,0,3.604-0.349,5.017-1.044
			c1.411-0.696,2.619-1.634,3.625-2.813c1.005-1.179,1.827-2.523,2.465-4.031s1.141-3.093,1.508-4.756
			c0.367-1.662,0.628-3.335,0.783-5.017c0.154-1.683,0.271-3.258,0.348-4.728c0.116-2.668,0.483-5.2,1.103-7.598
			c0.618-2.397,1.537-4.495,2.755-6.293s2.745-3.219,4.582-4.263c1.836-1.044,4.031-1.566,6.583-1.566
			c1.082,0,2.136,0.106,3.161,0.319c1.023,0.213,1.923,0.57,2.697,1.072c0.772,0.503,1.4,1.132,1.885,1.886
			c0.482,0.754,0.725,1.691,0.725,2.812c0,0.928-0.184,1.711-0.551,2.35c-0.368,0.638-0.851,1.141-1.45,1.508
			s-1.296,0.638-2.088,0.812c-0.793,0.174-1.615,0.261-2.465,0.261c0.541-0.889,0.957-1.759,1.247-2.609s0.435-1.817,0.435-2.9
			c0-1.469-0.396-2.639-1.188-3.509c-0.793-0.87-1.827-1.305-3.104-1.305c-1.508,0-2.755,0.367-3.74,1.102
			c-0.986,0.735-1.809,1.731-2.466,2.987c-0.657,1.257-1.159,2.726-1.508,4.408c-0.348,1.682-0.638,3.461-0.87,5.336
			c-0.231,1.876-0.426,3.799-0.58,5.771c-0.154,1.973-0.348,3.906-0.58,5.8c-0.193,1.663-0.638,3.461-1.334,5.395
			c-0.695,1.934-1.76,3.741-3.189,5.423c-1.431,1.682-3.297,3.084-5.597,4.205c-2.302,1.121-5.153,1.682-8.556,1.682
			c-1.663,0-3.306-0.223-4.93-0.667c-1.624-0.443-3.065-1.131-4.321-2.059s-2.271-2.088-3.045-3.48
			C348.923,83.508,348.535,81.884,348.535,80.027z"/>
		<path d="M418.773,75.155c-0.773,1.007-1.692,1.914-2.755,2.727c-1.064,0.812-2.233,1.218-3.509,1.218
			c-0.891,0-1.663-0.193-2.32-0.58c-0.658-0.386-1.257-0.928-1.798-1.624c-0.464,1.935-1.229,3.761-2.291,5.481
			c-1.064,1.721-2.35,3.229-3.857,4.523c-1.508,1.296-3.189,2.32-5.046,3.074c-1.855,0.754-3.79,1.131-5.8,1.131
			c-2.127,0-3.828-0.608-5.104-1.827c-1.276-1.218-1.914-2.89-1.914-5.017c0-2.049,0.521-4.011,1.565-5.887
			c1.044-1.875,2.397-3.519,4.061-4.931c1.662-1.41,3.499-2.531,5.51-3.363c2.01-0.831,3.981-1.247,5.916-1.247
			c2.088,0,3.73,0.561,4.93,1.682c1.198,1.122,1.934,2.475,2.204,4.061c0.193,1.159,0.628,2.088,1.305,2.783
			c0.677,0.696,1.557,1.044,2.64,1.044c1.044,0,2.029-0.309,2.958-0.928c0.928-0.618,1.914-1.546,2.958-2.784L418.773,75.155z
			 M391.804,90.41c0.966,0,1.933-0.328,2.899-0.986c0.967-0.657,1.895-1.508,2.784-2.552s1.711-2.224,2.465-3.538
			s1.411-2.629,1.973-3.944c0.56-1.314,0.995-2.571,1.305-3.77c0.309-1.198,0.464-2.204,0.464-3.017c0-0.966-0.203-1.72-0.609-2.262
			c-0.405-0.541-1.054-0.812-1.942-0.812c-0.967,0-1.934,0.329-2.9,0.986c-0.967,0.658-1.895,1.508-2.784,2.552
			s-1.711,2.225-2.465,3.538c-0.754,1.315-1.412,2.63-1.972,3.944c-0.561,1.314-0.996,2.572-1.305,3.77
			c-0.311,1.199-0.465,2.204-0.465,3.017c0,0.967,0.203,1.721,0.609,2.262C390.267,90.14,390.913,90.41,391.804,90.41z"/>
		<path d="M418.657,80.202c0.541-0.696,1.323-1.683,2.349-2.958c1.024-1.276,2.194-2.532,3.509-3.771
			c1.314-1.237,2.727-2.32,4.234-3.248s3.016-1.392,4.523-1.392c1.276,0,2.242,0.357,2.9,1.072c0.657,0.717,0.986,1.596,0.986,2.64
			c0,1.314-0.416,2.659-1.247,4.031c-0.832,1.372-1.75,2.745-2.755,4.117c-1.006,1.373-1.924,2.688-2.755,3.944
			c-0.832,1.257-1.247,2.427-1.247,3.509c0,0.464,0.115,0.841,0.348,1.131s0.618,0.436,1.16,0.436c0.541,0,1.439-0.415,2.697-1.247
			c1.256-0.831,2.947-2.368,5.074-4.611c1.662-1.777,3.19-3.509,4.582-5.19c1.393-1.683,2.437-2.948,3.132-3.799l0.58,0.289
			c-1.006,1.199-2.242,2.688-3.712,4.467s-3.035,3.538-4.697,5.277c-2.012,2.127-3.723,3.636-5.134,4.524s-2.871,1.334-4.379,1.334
			c-1.47,0-2.552-0.406-3.248-1.218c-0.695-0.812-1.044-1.74-1.044-2.784c0-1.314,0.415-2.668,1.247-4.061
			c0.831-1.392,1.749-2.755,2.755-4.089c1.005-1.334,1.924-2.6,2.755-3.799c0.831-1.198,1.247-2.242,1.247-3.132
			c0-0.425-0.136-0.773-0.405-1.044c-0.271-0.271-0.678-0.406-1.219-0.406c-0.773,0-1.682,0.358-2.726,1.073
			c-1.044,0.716-2.146,1.644-3.306,2.784c-1.16,1.141-2.34,2.436-3.538,3.886c-1.199,1.45-2.33,2.9-3.394,4.35
			c-1.063,1.45-2.021,2.853-2.871,4.205c-0.851,1.354-1.527,2.515-2.029,3.48l-5.858,0.174c2.05-3.402,4.109-6.776,6.177-10.121
			c2.068-3.344,4.108-6.776,6.119-10.295l6.612-0.232l-7.54,10.557L418.657,80.202z"/>
	</g>
</g>
</svg>
